<svg width="20" height="20" viewBox="0 0 20 20" fill="none" xmlns="http://www.w3.org/2000/svg">
<rect width="20" height="20" rx="2" fill="#78BC27"/>
<path fill-rule="evenodd" clip-rule="evenodd" d="M18.9657 8.19408C18.904 8.1041 18.8304 8.04237 18.5237 8.01901C18.4435 8.0129 18.1776 8.00418 17.7306 8.00418C16.5559 8.00418 15.7576 8.3606 15.3487 9.06438C15.4613 8.35642 14.7733 8.0007 13.2771 8.0007C11.5229 8.0007 10.4279 8.70691 9.9916 10.1193C9.82943 10.6447 9.81287 11.0749 9.94033 11.4111L9.52637 11.439C9.20291 11.4638 8.77726 11.4856 8.5164 11.4856C7.87471 11.4856 7.47626 11.378 7.32194 11.1626C7.18384 10.9708 7.19744 10.6102 7.35682 10.0867C7.62465 9.21957 8.28797 8.82915 9.34781 8.82915C9.89709 8.8281 10.4324 8.88669 10.4324 8.88669V8.88634C10.506 8.88181 10.537 8.80508 10.5304 8.74161L10.52 8.65878L10.4823 8.36723C10.4575 8.17577 10.3149 8.06208 10.0544 8.02685C9.81635 8.01081 9.63902 8.00017 9.37833 8.00017H9.36403C7.97863 8.00331 7.01313 8.45825 6.46943 9.36465C6.66996 8.45494 6.02949 8 4.54557 8C3.72078 8 3.12965 8.02319 2.77079 8.0701C2.49581 8.10428 2.32823 8.21832 2.26755 8.41152L2.1502 8.78608C2.12875 8.85478 2.16188 8.88861 2.24959 8.88861L2.25221 8.88808C2.31742 8.87989 2.56835 8.85321 2.99713 8.82078C3.56437 8.77544 3.98513 8.75103 4.26169 8.75103C5.0781 8.75103 5.42197 8.95557 5.29398 9.36412C5.26608 9.4548 5.204 9.5106 5.10879 9.53239C4.33632 9.66038 3.7234 9.75263 3.27003 9.8086C1.99396 9.97077 1.25688 10.3666 1.05827 11.0013C0.785901 11.8732 1.4684 12.3069 3.10472 12.3069C3.92079 12.3069 4.60433 12.2589 5.15988 12.166C5.47899 12.1124 5.64081 12.0306 5.7048 11.8251L6.00908 10.8568C5.97735 11.8263 6.65723 12.3142 8.04995 12.3142C8.65293 12.3142 9.22453 12.2943 9.49446 12.2474C9.78008 12.1979 9.91644 12.1358 9.97957 11.9204L10.0413 11.6148C10.3377 12.0772 10.989 12.3088 11.9939 12.3088C13.0538 12.3088 13.6719 12.2791 13.8482 12.2216C13.9959 12.1745 14.0871 12.0983 14.1197 11.9923C14.126 11.9734 14.1293 11.9532 14.1326 11.9312L14.2596 11.5194C14.2817 11.4496 14.2486 11.4137 14.1616 11.4148L13.4815 11.4474C13.0287 11.4721 12.6742 11.4849 12.4182 11.4849C11.9364 11.4849 11.6061 11.4522 11.4253 11.3865C11.1573 11.2819 11.0298 11.0779 11.042 10.7687L13.1908 10.4932C14.1539 10.3701 14.7986 10.0736 15.1264 9.60389L14.3992 12.1419C14.3853 12.1898 14.391 12.2282 14.4153 12.257C14.4425 12.2887 14.4889 12.3041 14.5576 12.3041H15.4469C15.6038 12.3041 15.6561 12.2238 15.677 12.1565L16.4631 9.4194C16.5665 9.05914 16.8978 8.88407 17.4759 8.88407L18.6442 8.89802C18.6507 8.89849 18.6572 8.89872 18.6637 8.89872C18.7129 8.89872 18.8032 8.88076 18.8456 8.76184L18.9837 8.38606C19.0098 8.31335 19.0046 8.24901 18.9675 8.1946L18.9657 8.19408ZM4.63223 11.4871C4.35428 11.5307 3.95566 11.5523 3.43463 11.5523C2.53086 11.5523 2.13555 11.3699 2.24994 11.0048C2.33224 10.7432 2.56904 10.5854 2.96243 10.5326L5.02004 10.2564L4.63223 11.4871ZM14.1352 9.26944C14.0487 9.54844 13.6465 9.74025 12.9293 9.84522L11.2164 10.0883L11.26 9.9481C11.4018 9.48671 11.6035 9.17214 11.864 9.00509C12.1245 8.83804 12.5483 8.75451 13.1357 8.75451C13.9082 8.75451 14.2413 8.92662 14.1354 9.26926L14.1352 9.26944Z" fill="white"/>
</svg>
