<svg width="36" height="26" viewBox="0 0 36 26" fill="none" xmlns="http://www.w3.org/2000/svg">
<path d="M32.9766 20.5234V9.97656H27V20.5234H32.9766ZM34.5234 7.02344C34.9453 7.02344 35.2969 7.16406 35.5781 7.44531C35.8594 7.72656 36 8.07812 36 8.5V23.4766C36 23.8984 35.8594 24.2734 35.5781 24.6016C35.2969 24.8828 34.9453 25.0234 34.5234 25.0234H25.5234C25.1016 25.0234 24.7266 24.8828 24.3984 24.6016C24.1172 24.2734 23.9766 23.8984 23.9766 23.4766V8.5C23.9766 8.07812 24.1172 7.72656 24.3984 7.44531C24.7266 7.16406 25.1016 7.02344 25.5234 7.02344H34.5234ZM5.97656 4V20.5234H21.0234V25.0234H0V20.5234H3.02344V4C3.02344 3.20313 3.30469 2.5 3.86719 1.89062C4.47656 1.28125 5.17969 0.976562 5.97656 0.976562H32.9766V4H5.97656Z" fill="#1D1730"/>
</svg>
