<?xml version="1.0" encoding="UTF-8"?>
<svg viewBox="0 0 162 162" version="1.1" xmlns="http://www.w3.org/2000/svg" xmlns:xlink="http://www.w3.org/1999/xlink">
    <!-- Generator: Sketch 53.2 (72643) - https://sketchapp.com -->
    <title>Rectangle</title>
    <desc>Created with Sketch.</desc>
    <g id="Page-1" stroke="none" stroke-width="1" fill="none" fill-rule="evenodd">
        <g id="Mark-01">
            <g id="02">
                <g id="Mark" transform="translate(39.000000, 39.000000)">
                    <g id="Group-8" transform="translate(0.000000, 19.059972)" fill="#F4B400">
                        <path d="M16.4569668,7.9056872 C14.837346,9.52530806 11.3658768,12.9961137 7.65421801,16.7077725 C5.03402844,19.3279621 2.29440758,22.0682464 1.0658141e-14,24.3619905 C13.5846445,33.8255924 25.8270142,34.5713744 31.7806635,28.6183886 C34.1500474,26.2483412 38.0899526,22.308436 42.2999052,18.0978199 C46.2019905,14.1957346 53.3824645,7.01592417 60.3990521,1.38555833e-13 C60.3990521,1.38555833e-13 50.9951659,2.00113744 40.0187678,2.00113744 C30.2061611,2.00113744 20.5036967,3.85895735 16.4569668,7.9056872" id="Fill-4"></path>
                        <path d="M61.7153839,23.6976872 C61.7153839,12.7212891 63.7165213,3.31806635 63.7165213,3.31806635 C56.7005972,10.3339905 49.5201232,17.5144645 45.6180379,21.4165498 L35.0981327,31.936455 C29.1444834,37.8894408 29.8902654,50.1318104 39.3545308,63.7157915 L47.0087488,56.0615735 L55.8108341,47.2601517 C59.857564,43.2127583 61.7153839,33.5102938 61.7153839,23.6976872" id="Fill-9"></path>
                    </g>
                    <g id="Group-7" transform="translate(1.037261, 0.000000)" fill="#003580">
                        <path d="M51.9599052,2.59829384 C39.2192417,2.59829384 26.6218957,5.01014218 21.3669194,10.2651185 C17.7793365,13.8520379 7.1963981,24.4349763 -8.52651283e-14,31.6313744 C2.23800948,33.1912796 4.44881517,34.5673934 6.6171564,35.7676777 C10.3288152,32.056019 13.7996209,28.5852133 15.4199052,26.9655924 C19.4659716,22.9188626 29.168436,21.0610427 38.9810427,21.0610427 C49.9574408,21.0610427 59.361327,19.0599052 59.361327,19.0599052 C69.0478673,9.37336493 78.4212322,2.84217094e-13 78.4212322,2.84217094e-13 C78.4212322,2.84217094e-13 66.2113744,2.59829384 51.9599052,2.59829384" id="Fill-1"></path>
                        <path d="M62.6790616,22.3781706 C62.6790616,22.3781706 60.6779242,31.7813934 60.6779242,42.7577915 C60.6779242,52.5703981 58.8207678,62.2728626 54.7733744,66.3202559 L45.9712891,75.1216777 C47.1715735,77.2906825 48.5476872,79.5008246 50.1075924,81.7394976 C57.3039905,74.542436 67.8869289,63.9594976 71.4745118,60.3725782 C76.7288246,55.1182654 79.1413365,42.5195924 79.1413365,29.7789289 C79.1413365,15.5274597 81.7396303,3.3176019 81.7396303,3.3176019 C81.7396303,3.3176019 72.3662654,12.6916303 62.6790616,22.3781706" id="Fill-7"></path>
                    </g>
                </g>
            </g>
        </g>
    </g>
</svg>