<svg width="43" height="67" viewBox="0 0 43 67" fill="none" xmlns="http://www.w3.org/2000/svg">
<path fill-rule="evenodd" clip-rule="evenodd" d="M30 1H22.5V11.5H33V4C33 2.34315 31.6569 1 30 1ZM34 11.5V12.5V20C34 22.2091 32.2091 24 30 24H22.5H21.5H14C11.7909 24 10 22.2091 10 20V12.5V11.5V4C10 1.79086 11.7909 0 14 0H21.5H22.5H30C32.2091 0 34 1.79086 34 4V11.5ZM11 12.5V20C11 21.6569 12.3431 23 14 23H21.5V12.5H11ZM21.5 11.5H11V4C11 2.34315 12.3431 1 14 1H21.5V11.5ZM22.5 12.5V23H30C31.6569 23 33 21.6569 33 20V12.5H22.5Z" fill="#256BFF"/>
<path fill-rule="evenodd" clip-rule="evenodd" d="M22 21C26.9706 21 31 16.9706 31 12C31 7.02944 26.9706 3 22 3C17.0294 3 13 7.02944 13 12C13 16.9706 17.0294 21 22 21ZM22 22C27.5228 22 32 17.5228 32 12C32 6.47715 27.5228 2 22 2C16.4772 2 12 6.47715 12 12C12 17.5228 16.4772 22 22 22Z" fill="url(#paint0_linear_4351_1544)"/>
<path fill-rule="evenodd" clip-rule="evenodd" d="M22 16C24.2091 16 26 14.2091 26 12C26 9.79086 24.2091 8 22 8C19.7909 8 18 9.79086 18 12C18 14.2091 19.7909 16 22 16ZM22 17C24.7614 17 27 14.7614 27 12C27 9.23858 24.7614 7 22 7C19.2386 7 17 9.23858 17 12C17 14.7614 19.2386 17 22 17Z" fill="url(#paint1_linear_4351_1544)"/>
<path d="M1.26 61H3.612C6.384 61 7.896 59.292 7.896 56.366C7.896 53.454 6.384 51.816 3.556 51.816H1.26V61ZM2.436 60.034V52.782H3.472C5.614 52.782 6.678 54.056 6.678 56.366C6.678 58.69 5.614 60.034 3.472 60.034H2.436ZM12.519 61.168C13.457 61.168 14.185 60.888 14.773 60.468L14.367 59.726C13.891 60.048 13.317 60.23 12.659 60.23C11.371 60.23 10.517 59.306 10.419 57.906H14.997C15.039 57.682 15.053 57.472 15.053 57.22C15.053 55.26 14.059 54.028 12.323 54.028C10.769 54.028 9.27095 55.386 9.27095 57.598C9.27095 59.852 10.699 61.168 12.519 61.168ZM10.419 57.01C10.559 55.708 11.399 54.952 12.351 54.952C13.387 54.952 14.017 55.666 14.017 57.01H10.419ZM16.9163 61H18.0783V55.134H19.5063V54.196H18.0783V53.132C18.0783 52.264 18.3863 51.802 19.0303 51.802C19.2683 51.802 19.5203 51.858 19.7863 51.942L20.0383 51.088C19.7583 50.962 19.3243 50.864 18.9043 50.864C17.5463 50.864 16.9163 51.746 16.9163 53.132V54.196L15.9923 54.266V55.134H16.9163V61ZM22.1027 61.168C22.9567 61.168 23.6987 60.734 24.3427 60.188H24.3847L24.4967 61H25.4487V56.814C25.4487 55.134 24.7347 54.028 23.0827 54.028C21.9907 54.028 21.0387 54.49 20.4087 54.91L20.8567 55.694C21.3887 55.344 22.1027 54.994 22.8867 54.994C23.9927 54.994 24.2727 55.82 24.2867 56.674C21.3747 56.996 20.1147 57.724 20.1147 59.236C20.1147 60.468 20.9687 61.168 22.1027 61.168ZM22.4247 60.216C21.7667 60.216 21.2487 59.922 21.2487 59.166C21.2487 58.284 21.9907 57.766 24.2867 57.5V59.348C23.6287 59.922 23.0827 60.216 22.4247 60.216ZM29.5774 61.168C30.5154 61.168 31.1874 60.678 31.8174 59.936H31.8594L31.9574 61H32.9094V54.196H31.7474V59.012C31.1174 59.81 30.6274 60.16 29.9414 60.16C29.0454 60.16 28.6534 59.614 28.6534 58.354V54.196H27.4914V58.508C27.4914 60.244 28.1354 61.168 29.5774 61.168ZM36.4226 61.168C36.7166 61.168 36.9266 61.126 37.0946 61.042L36.9406 60.174C36.8286 60.202 36.7726 60.202 36.7026 60.202C36.5206 60.202 36.3666 60.076 36.3666 59.712V51.032H35.2046V59.628C35.2046 60.608 35.5546 61.168 36.4226 61.168ZM40.915 61.168C41.377 61.168 41.839 61.042 42.203 60.874L41.965 60.048C41.685 60.174 41.433 60.216 41.181 60.216C40.411 60.216 40.131 59.74 40.131 58.914V55.134H41.979V54.196H40.131V52.012H39.165L39.025 54.196L37.961 54.266V55.134H38.969V58.886C38.969 60.244 39.459 61.168 40.915 61.168Z" fill="#6F6F6F"/>
<defs>
<linearGradient id="paint0_linear_4351_1544" x1="22" y1="21.4918" x2="18.8934" y2="2.5" gradientUnits="userSpaceOnUse">
<stop stop-color="#256BFF"/>
<stop offset="1" stop-color="#256BFF" stop-opacity="0.19"/>
</linearGradient>
<linearGradient id="paint1_linear_4351_1544" x1="22" y1="16.7459" x2="20.4467" y2="7.25" gradientUnits="userSpaceOnUse">
<stop stop-color="#256BFF"/>
<stop offset="1" stop-color="#256BFF" stop-opacity="0.19"/>
</linearGradient>
</defs>
</svg>
