<svg width="48" height="73" viewBox="0 0 48 73" fill="none" xmlns="http://www.w3.org/2000/svg">
<path fill-rule="evenodd" clip-rule="evenodd" d="M36 1.5H24.75V17.25H40.5V6C40.5 3.51472 38.4853 1.5 36 1.5ZM42 17.25V18.75V30C42 33.3137 39.3137 36 36 36H24.75H23.25H12C8.68629 36 6 33.3137 6 30V18.75V17.25V6C6 2.68629 8.68629 0 12 0H23.25H24.75H36C39.3137 0 42 2.68629 42 6V17.25ZM7.5 18.75V30C7.5 32.4853 9.51472 34.5 12 34.5H23.25V18.75H7.5ZM23.25 17.25H7.5V6C7.5 3.51472 9.51472 1.5 12 1.5H23.25V17.25ZM24.75 18.75V34.5H36C38.4853 34.5 40.5 32.4853 40.5 30V18.75H24.75Z" fill="#256BFF"/>
<path fill-rule="evenodd" clip-rule="evenodd" d="M24 31.5C31.4558 31.5 37.5 25.4558 37.5 18C37.5 10.5442 31.4558 4.5 24 4.5C16.5442 4.5 10.5 10.5442 10.5 18C10.5 25.4558 16.5442 31.5 24 31.5ZM24 33C32.2843 33 39 26.2843 39 18C39 9.71573 32.2843 3 24 3C15.7157 3 9 9.71573 9 18C9 26.2843 15.7157 33 24 33Z" fill="url(#paint0_linear_4351_1552)"/>
<path fill-rule="evenodd" clip-rule="evenodd" d="M24 24C27.3137 24 30 21.3137 30 18C30 14.6863 27.3137 12 24 12C20.6863 12 18 14.6863 18 18C18 21.3137 20.6863 24 24 24ZM24 25.5C28.1421 25.5 31.5 22.1421 31.5 18C31.5 13.8579 28.1421 10.5 24 10.5C19.8579 10.5 16.5 13.8579 16.5 18C16.5 22.1421 19.8579 25.5 24 25.5Z" fill="url(#paint1_linear_4351_1552)"/>
<path d="M1.246 67H2.324V61.932C2.324 61.12 2.226 59.986 2.156 59.188H2.212L2.94 61.33L4.648 66.076H5.502L7.224 61.33L7.938 59.188H7.994C7.924 59.986 7.826 61.12 7.826 61.932V67H8.932V57.816H7.462L5.726 62.73C5.502 63.374 5.334 63.962 5.124 64.648H5.068C4.872 63.962 4.676 63.374 4.452 62.73L2.716 57.816H1.246V67ZM14.0639 67.168C15.0019 67.168 15.7299 66.888 16.3179 66.468L15.9119 65.726C15.4359 66.048 14.8619 66.23 14.2039 66.23C12.9159 66.23 12.0619 65.306 11.9639 63.906H16.5419C16.5839 63.682 16.5979 63.472 16.5979 63.22C16.5979 61.26 15.6039 60.028 13.8679 60.028C12.3139 60.028 10.8159 61.386 10.8159 63.598C10.8159 65.852 12.2439 67.168 14.0639 67.168ZM11.9639 63.01C12.1039 61.708 12.9439 60.952 13.8959 60.952C14.9319 60.952 15.5619 61.666 15.5619 63.01H11.9639ZM20.5892 67.168C21.3872 67.168 22.1152 66.72 22.6472 66.202H22.6892L22.7872 67H23.7392V57.032H22.5772V59.65L22.6332 60.812C22.0312 60.322 21.5132 60.028 20.7292 60.028C19.1752 60.028 17.7752 61.4 17.7752 63.612C17.7752 65.88 18.8812 67.168 20.5892 67.168ZM20.8412 66.188C19.6512 66.188 18.9792 65.222 18.9792 63.598C18.9792 62.044 19.8472 61.008 20.9252 61.008C21.4852 61.008 22.0032 61.19 22.5772 61.708V65.264C22.0172 65.88 21.4712 66.188 20.8412 66.188ZM26.0308 67H27.1928V60.196H26.0308V67ZM26.6188 58.796C27.0668 58.796 27.3888 58.502 27.3888 58.04C27.3888 57.592 27.0668 57.284 26.6188 57.284C26.1708 57.284 25.8488 57.592 25.8488 58.04C25.8488 58.502 26.1708 58.796 26.6188 58.796ZM31.4778 67.168C32.4158 67.168 33.0878 66.678 33.7178 65.936H33.7598L33.8578 67H34.8098V60.196H33.6478V65.012C33.0178 65.81 32.5278 66.16 31.8418 66.16C30.9458 66.16 30.5538 65.614 30.5538 64.354V60.196H29.3918V64.508C29.3918 66.244 30.0358 67.168 31.4778 67.168ZM37.105 67H38.267V62.072C38.897 61.372 39.457 61.036 39.961 61.036C40.829 61.036 41.221 61.568 41.221 62.842V67H42.383V62.072C43.013 61.372 43.559 61.036 44.091 61.036C44.945 61.036 45.351 61.568 45.351 62.842V67H46.513V62.688C46.513 60.952 45.841 60.028 44.441 60.028C43.615 60.028 42.901 60.56 42.201 61.316C41.921 60.518 41.361 60.028 40.311 60.028C39.499 60.028 38.799 60.532 38.197 61.176H38.155L38.057 60.196H37.105V67Z" fill="#6F6F6F"/>
<defs>
<linearGradient id="paint0_linear_4351_1552" x1="25.1859" y1="31.3924" x2="26.4109" y2="6.64106" gradientUnits="userSpaceOnUse">
<stop stop-color="#256BFF"/>
<stop offset="1" stop-color="#256BFF" stop-opacity="0.19"/>
</linearGradient>
<linearGradient id="paint1_linear_4351_1552" x1="24.593" y1="24.6962" x2="25.2054" y2="12.3205" gradientUnits="userSpaceOnUse">
<stop stop-color="#256BFF"/>
<stop offset="1" stop-color="#256BFF" stop-opacity="0.19"/>
</linearGradient>
</defs>
</svg>
