<svg width="48" height="79" viewBox="0 0 48 79" fill="none" xmlns="http://www.w3.org/2000/svg">
<path fill-rule="evenodd" clip-rule="evenodd" d="M40 2H25V23H46V8C46 4.68629 43.3137 2 40 2ZM48 23V25V40C48 44.4183 44.4183 48 40 48H25H23H8C3.58172 48 0 44.4183 0 40V25V23V8C0 3.58172 3.58172 0 8 0H23H25H40C44.4183 0 48 3.58172 48 8V23ZM2 25V40C2 43.3137 4.68629 46 8 46H23V25H2ZM23 23H2V8C2 4.68629 4.68629 2 8 2H23V23ZM25 25V46H40C43.3137 46 46 43.3137 46 40V25H25Z" fill="#256BFF"/>
<path fill-rule="evenodd" clip-rule="evenodd" d="M24 42C33.9411 42 42 33.9411 42 24C42 14.0589 33.9411 6 24 6C14.0589 6 6 14.0589 6 24C6 33.9411 14.0589 42 24 42ZM24 44C35.0457 44 44 35.0457 44 24C44 12.9543 35.0457 4 24 4C12.9543 4 4 12.9543 4 24C4 35.0457 12.9543 44 24 44Z" fill="url(#paint0_linear_4351_1560)"/>
<path fill-rule="evenodd" clip-rule="evenodd" d="M24 32C28.4183 32 32 28.4183 32 24C32 19.5817 28.4183 16 24 16C19.5817 16 16 19.5817 16 24C16 28.4183 19.5817 32 24 32ZM24 34C29.5228 34 34 29.5228 34 24C34 18.4772 29.5228 14 24 14C18.4772 14 14 18.4772 14 24C14 29.5228 18.4772 34 24 34Z" fill="url(#paint1_linear_4351_1560)"/>
<path d="M9.26 73H14.44V72.006H10.436V63.816H9.26V73ZM17.5246 73.168C18.3786 73.168 19.1206 72.734 19.7646 72.188H19.8066L19.9186 73H20.8706V68.814C20.8706 67.134 20.1566 66.028 18.5046 66.028C17.4126 66.028 16.4606 66.49 15.8306 66.91L16.2786 67.694C16.8106 67.344 17.5246 66.994 18.3086 66.994C19.4146 66.994 19.6946 67.82 19.7086 68.674C16.7966 68.996 15.5366 69.724 15.5366 71.236C15.5366 72.468 16.3906 73.168 17.5246 73.168ZM17.8466 72.216C17.1886 72.216 16.6706 71.922 16.6706 71.166C16.6706 70.284 17.4126 69.766 19.7086 69.5V71.348C19.0506 71.922 18.5046 72.216 17.8466 72.216ZM23.0113 73H24.1733V68.632C24.6353 67.484 25.3213 67.078 25.8953 67.078C26.1613 67.078 26.3153 67.106 26.5113 67.162L26.7633 66.168C26.5533 66.07 26.3433 66.028 26.0353 66.028C25.2793 66.028 24.5793 66.574 24.1033 67.428H24.0613L23.9633 66.196H23.0113V73ZM30.0378 76.136C32.1518 76.136 33.4818 75.044 33.4818 73.77C33.4818 72.65 32.6838 72.146 31.1018 72.146H29.7858C28.8758 72.146 28.5958 71.838 28.5958 71.418C28.5958 71.04 28.7778 70.816 29.0298 70.606C29.3378 70.76 29.7018 70.844 30.0378 70.844C31.4238 70.844 32.5298 69.934 32.5298 68.478C32.5298 67.904 32.3058 67.4 31.9838 67.092H33.3698V66.196H31.0038C30.7518 66.098 30.4158 66.028 30.0378 66.028C28.6517 66.028 27.4758 66.966 27.4758 68.45C27.4758 69.262 27.9098 69.92 28.3578 70.284V70.34C28.0078 70.578 27.6158 71.026 27.6158 71.6C27.6158 72.132 27.8818 72.496 28.2178 72.706V72.762C27.6018 73.182 27.2238 73.728 27.2238 74.302C27.2238 75.478 28.3718 76.136 30.0378 76.136ZM30.0378 70.06C29.2538 70.06 28.5958 69.444 28.5958 68.45C28.5958 67.456 29.2398 66.868 30.0378 66.868C30.8358 66.868 31.4798 67.47 31.4798 68.45C31.4798 69.444 30.8218 70.06 30.0378 70.06ZM30.2058 75.324C28.9738 75.324 28.2318 74.876 28.2318 74.148C28.2318 73.756 28.4417 73.35 28.9318 73C29.2258 73.084 29.5478 73.112 29.8138 73.112H30.9758C31.8718 73.112 32.3478 73.322 32.3478 73.952C32.3478 74.652 31.4938 75.324 30.2058 75.324ZM37.3627 73.168C38.3007 73.168 39.0287 72.888 39.6167 72.468L39.2107 71.726C38.7347 72.048 38.1607 72.23 37.5027 72.23C36.2147 72.23 35.3607 71.306 35.2627 69.906H39.8407C39.8827 69.682 39.8967 69.472 39.8967 69.22C39.8967 67.26 38.9027 66.028 37.1667 66.028C35.6127 66.028 34.1147 67.386 34.1147 69.598C34.1147 71.852 35.5427 73.168 37.3627 73.168ZM35.2627 69.01C35.4027 67.708 36.2427 66.952 37.1947 66.952C38.2307 66.952 38.8607 67.666 38.8607 69.01H35.2627Z" fill="#6F6F6F"/>
<defs>
<linearGradient id="paint0_linear_4351_1560" x1="24" y1="42.9836" x2="17.7867" y2="5" gradientUnits="userSpaceOnUse">
<stop stop-color="#256BFF"/>
<stop offset="1" stop-color="#256BFF" stop-opacity="0.19"/>
</linearGradient>
<linearGradient id="paint1_linear_4351_1560" x1="24" y1="33.4918" x2="20.8934" y2="14.5" gradientUnits="userSpaceOnUse">
<stop stop-color="#256BFF"/>
<stop offset="1" stop-color="#256BFF" stop-opacity="0.19"/>
</linearGradient>
</defs>
</svg>
